<svg width="66" height="40" viewBox="0 0 66 40" fill="none" xmlns="http://www.w3.org/2000/svg">
<g clip-path="url(#clip0)">
<path d="M28.8155 7.25952C28.8155 7.25952 12.1506 -5.69625 2.22948 3.00846C2.22948 3.00846 1.42798 3.50206 1.91526 4.39841C1.91446 4.39841 -0.202144 5.06485 0.0163754 8.38338C0.0163754 8.38338 0.140788 9.21382 0.825854 8.51602C1.51092 7.81823 4.81343 6.27875 7.44523 7.25871C16.8886 10.775 12.0708 19.4371 16.0584 26.1312C16.0552 26.132 13.9817 12.8258 28.8155 7.25952Z" fill="#5F78D3"/>
<path d="M0.544729 7.78586C0.544729 7.78586 0.0797776 5.89989 2.89421 4.2752C3.69571 4.18918 5.28676 4.22375 7.61311 5.2005C7.61311 5.2005 6.37696 4.71815 4.11521 5.40549C4.11521 5.40549 5.6895 5.07589 9.02152 6.11936C3.93497 4.79131 0.544729 7.78586 0.544729 7.78586Z" fill="white"/>
<path d="M6.41045 2.53311C6.54821 2.5567 6.67379 2.62718 6.76623 2.73281C6.85868 2.83843 6.91241 2.97281 6.91847 3.11353C6.91847 3.44394 6.62179 3.71164 6.25493 3.71164C5.88808 3.71164 5.5914 3.44394 5.5914 3.11353C5.59186 3.02671 5.61291 2.94127 5.65281 2.86432C5.65477 2.97818 5.69992 3.08695 5.77897 3.16829C5.85803 3.24963 5.965 3.29735 6.07788 3.30165H6.1042C6.21999 3.29704 6.32939 3.24693 6.40898 3.16204C6.48858 3.07715 6.53204 2.96423 6.53008 2.84744C6.53035 2.73132 6.4877 2.61925 6.41045 2.53311Z" fill="white"/>
<path d="M16.7119 11.5071C16.0947 7.13227 14.4909 6.52291 14.4909 6.52291C15.0667 7.28582 15.6074 11.6944 14.9486 13.5764C14.3712 11.647 12.3822 7.94904 10.4953 6.75444C10.4546 6.71183 8.7974 4.9778 6.56356 4.17792C6.40884 4.12245 6.25572 4.07341 6.10339 4.02919C7.06041 3.78239 7.89063 3.20358 8.3484 2.90372C9.15788 2.37395 11.8343 2.99055 11.8343 2.99055C6.91526 0.686548 4.02507 3.45681 3.77864 3.71085C3.31602 3.7096 2.85424 3.7505 2.39893 3.83304C2.38578 3.78588 2.3863 3.73591 2.40043 3.68904C2.41456 3.64217 2.44172 3.60036 2.47869 3.56856C2.78094 3.24699 6.93361 -0.602919 14.0084 1.63918C19.4642 3.36919 18.634 7.78505 18.634 7.78505C17.0676 4.24786 14.3696 3.71004 14.3696 3.71004C16.1385 4.78085 17.9441 6.8501 16.7119 11.5071Z" fill="white"/>
<path d="M66 4.2189C62.8897 17.5565 37.8629 10.905 28.7401 14.6962C20.8622 17.8958 17.9441 26.9486 20.8032 34.6564C13.3544 26.5442 17.8069 13.7074 27.1243 9.19911C33.632 6.07191 41.3695 6.28977 48.418 6.61455C54.0835 6.87582 61.2739 8.20548 66 4.2189Z" fill="#5F78D3"/>
<path d="M62.014 11.5071C58.6645 21.6533 41.6471 19.256 33.7182 20.5688C22.9182 22.3334 20.9803 32.83 29.4834 39.8441C19.8039 36.3278 17.4712 23.3817 26.913 18.0405C33.0778 14.6078 40.9022 15.0291 47.7162 14.9358C52.5603 14.8723 58.1772 14.9631 62.014 11.5071Z" fill="#5F78D3"/>
<path d="M58.8016 17.6104C57.1843 20.5101 54.2861 22.4218 51.2173 23.4789C45.2686 25.5265 34.7167 22.7747 30.0544 27.3192C25.952 31.2294 29.4898 37.1783 33.085 40.0008C25.8276 37.1333 23.1367 26.656 31.2913 23.2434C40.1422 19.576 50.5561 23.6293 58.8016 17.6104Z" fill="#5F78D3"/>
</g>
<defs>
<clipPath id="clip0">
<rect width="66" height="40" fill="white"/>
</clipPath>
</defs>
</svg>
